<svg width="44" height="44" viewBox="0 0 44 44" fill="none" xmlns="http://www.w3.org/2000/svg">
<g clip-path="url(#clip0_59_45)">
<path d="M40 0H4C1.79086 0 0 1.79086 0 4V40C0 42.2091 1.79086 44 4 44H40C42.2091 44 44 42.2091 44 40V4C44 1.79086 42.2091 0 40 0Z" fill="white"/>
<mask id="mask0_59_45" style="mask-type:luminance" maskUnits="userSpaceOnUse" x="12" y="12" width="20" height="20">
<path d="M32 12H12V32H32V12Z" fill="white"/>
</mask>
<g mask="url(#mask0_59_45)">
<path d="M31.6 22.2271C31.6 21.518 31.5364 20.8362 31.4182 20.1816H22V24.0498H27.3818C27.15 25.2998 26.4455 26.3589 25.3864 27.068V29.5771H28.6182C30.5091 27.8362 31.6 25.2725 31.6 22.2271Z" fill="#4285F4"/>
<path d="M21.9999 31.9999C24.6999 31.9999 26.9635 31.1044 28.618 29.5772L25.3862 27.0681C24.4908 27.6681 23.3453 28.0226 21.9999 28.0226C19.3953 28.0226 17.1908 26.2635 16.4044 23.8999H13.0635V26.4908C14.709 29.759 18.0908 31.9999 21.9999 31.9999Z" fill="#34A853"/>
<path d="M16.4045 23.9002C16.2045 23.3002 16.0909 22.6593 16.0909 22.0002C16.0909 21.3411 16.2045 20.7002 16.4045 20.1002V17.5093H13.0636C12.3864 18.8593 12 20.3866 12 22.0002C12 23.6138 12.3864 25.1411 13.0636 26.4911L16.4045 23.9002Z" fill="#FBBC04"/>
<path d="M21.9999 15.9773C23.468 15.9773 24.7862 16.4818 25.8226 17.4727L28.6908 14.6045C26.959 12.9909 24.6953 12 21.9999 12C18.0908 12 14.709 14.2409 13.0635 17.5091L16.4044 20.1C17.1908 17.7364 19.3953 15.9773 21.9999 15.9773Z" fill="#E94235"/>
</g>
</g>
<defs>
<clipPath id="clip0_59_45">
<rect width="44" height="44" fill="white"/>
</clipPath>
</defs>
</svg>
