<svg xmlns="http://www.w3.org/2000/svg" height="40" viewBox="0 -960 960 960" width="40"><path d="M480-80q-82 0-155-31.5t-127.5-86Q143-252 111.5-325T80-480q0-83.667 32.167-156.667 32.166-73 87.666-127t129.834-85.166Q404-880 488.667-880 568-880 639-853.167q71 26.834 124.5 74.334t85 112.666Q880-601 880-524q0 110.333-65.333 172.5-65.333 62.166-168 62.166H572q-15 0-24.833 11.001-9.834 11-9.834 24.333 0 17.334 14.667 36.834 14.666 19.5 14.666 45.833 0 33.999-25.5 62.666Q515.666-80 480-80ZM251.333-449.334q22 0 37.667-15.666 15.666-15.667 15.666-37.667T289-540.333Q273.333-556 251.333-556t-37.666 15.667Q198-524.667 198-502.667q0 22 15.667 37.667 15.666 15.666 37.666 15.666Zm124-166.666q22 0 37.667-15.667 15.666-15.667 15.666-37.667 0-21.999-15.666-37.666-15.667-15.667-37.667-15.667T337.667-707Q322-691.333 322-669.334q0 22 15.667 37.667Q353.333-616 375.333-616Zm209.334 0q22 0 37.666-15.667Q638-647.334 638-669.334q0-21.999-15.667-37.666-15.666-15.667-37.666-15.667-22 0-37.667 15.667-15.666 15.667-15.666 37.666 0 22 15.666 37.667Q562.667-616 584.667-616ZM712-449.334q22 0 37.667-15.666 15.666-15.667 15.666-37.667t-15.666-37.666Q734-556 712-556t-37.666 15.667q-15.667 15.666-15.667 37.666 0 22 15.667 37.667Q690-449.334 712-449.334Z"/></svg>