<svg width="24" height="24" viewBox="0 0 24 24" fill="#e8eaed" xmlns="http://www.w3.org/2000/svg">
<path d="M23.0339 9.19777C22.9858 8.64759 22.5008 8.2406 21.9506 8.28873C21.4004 8.33687 20.9934 8.8219 21.0415 9.37208L23.0339 9.19777ZM18.292 12.9762C17.7419 13.0243 17.3349 13.5093 17.383 14.0595C17.4311 14.6097 17.9162 15.0167 18.4663 14.9686L18.292 12.9762ZM3.38096 9.32129C3.4291 8.7711 3.0221 8.28607 2.47192 8.23794C1.92174 8.1898 1.43671 8.59679 1.38857 9.14698L3.38096 9.32129ZM6.53081 15.0191C7.08099 15.0672 7.56602 14.6602 7.61415 14.11C7.66228 13.5599 7.25529 13.0748 6.70511 13.0267L6.53081 15.0191ZM2.00985 13.5194L1.01366 13.4322L2.00985 13.5194ZM2.10076 13.6277L2.01361 14.6239L2.10076 13.6277ZM22.4082 13.5195L21.412 13.6067L22.4082 13.5195ZM22.3173 13.6279L22.2302 12.6317L22.3173 13.6279ZM21.0415 9.37208L21.412 13.6067L23.4044 13.4324L23.0339 9.19777L21.0415 9.37208ZM22.2302 12.6317L18.292 12.9762L18.4663 14.9686L22.4045 14.6241L22.2302 12.6317ZM1.38857 9.14698L1.01366 13.4322L3.00605 13.6065L3.38096 9.32129L1.38857 9.14698ZM2.01361 14.6239L6.53081 15.0191L6.70511 13.0267L2.18791 12.6315L2.01361 14.6239ZM2.74154 14.309C4.20795 12.6882 6.9416 10.7291 10.3039 10.1616C13.6046 9.60456 17.6247 10.3668 21.8095 14.3614L23.1905 12.9147C18.5753 8.50934 13.9287 7.52159 9.97108 8.18952C6.07506 8.84706 2.95871 11.0879 1.25846 12.9672L2.74154 14.309ZM1.01366 13.4322C0.960711 14.0374 1.4084 14.571 2.01361 14.6239L2.18791 12.6315C2.68308 12.6748 3.04937 13.1114 3.00605 13.6065L1.01366 13.4322ZM21.412 13.6067C21.3687 13.1115 21.735 12.675 22.2302 12.6317L22.4045 14.6241C23.0097 14.5711 23.4574 14.0376 23.4044 13.4324L21.412 13.6067Z"/>
</svg>
