<svg width="24" height="24" viewBox="0 0 24 24" fill="#babfc5" xmlns="http://www.w3.org/2000/svg">
<path d="M21.0128 12C21.558 12 22.0056 11.5567 21.9459 11.0148C21.7883 9.58326 21.2887 8.20532 20.4832 6.99987C19.4943 5.51983 18.0887 4.36627 16.4442 3.68508C14.7996 3.0039 12.99 2.82567 11.2442 3.17293C9.49836 3.5202 7.89471 4.37737 6.63604 5.63604C5.37737 6.89471 4.5202 8.49836 4.17293 10.2442C3.82567 11.99 4.0039 13.7996 4.68508 15.4442C5.36627 17.0887 6.51983 18.4943 7.99987 19.4832C9.20532 20.2887 10.5833 20.7883 12.0148 20.9459C12.5567 21.0056 13 20.558 13 20.0128V20.0128C13 19.4676 12.5559 19.0328 12.0161 18.9564C10.9757 18.8093 9.9773 18.43 9.09675 17.8416C7.94139 17.0696 7.04089 15.9724 6.50913 14.6886C5.97738 13.4048 5.83825 11.9922 6.10933 10.6294C6.38042 9.26652 7.04955 8.01466 8.03211 7.03211C9.01466 6.04955 10.2665 5.38042 11.6294 5.10933C12.9922 4.83825 14.4048 4.97738 15.6886 5.50913C16.9724 6.04089 18.0696 6.94139 18.8416 8.09675C19.43 8.9773 19.8093 9.97575 19.9564 11.0161C20.0328 11.5559 20.4676 12 21.0128 12V12Z"/>
<path fill-rule="evenodd" clip-rule="evenodd" d="M17.7071 9.29289C18.0976 9.68342 18.0976 10.3166 17.7071 10.7071L13.2071 15.2071C12.8166 15.5976 12.1834 15.5976 11.7929 15.2071L9.29289 12.7071C8.90237 12.3166 8.90237 11.6834 9.29289 11.2929C9.68342 10.9024 10.3166 10.9024 10.7071 11.2929L12.5 13.0858L16.2929 9.29289C16.6834 8.90237 17.3166 8.90237 17.7071 9.29289Z" />
</svg>
